<svg width="120" height="48" viewBox="0 0 120 48" fill="none" xmlns="http://www.w3.org/2000/svg">
<g clip-path="url(#clip0_1_33)">
<path d="M15.5902 18.4154C11.9957 18.2303 8.45674 19.3582 5.63548 21.5881C5.45399 21.735 5.30399 21.9169 5.19441 22.1229C5.08484 22.3289 5.01793 22.5548 4.99768 22.7871C4.97743 23.0194 5.00424 23.2534 5.07652 23.4752C5.1488 23.697 5.26507 23.902 5.41841 24.078L7.69279 26.7265C8.00486 27.0792 8.43682 27.3042 8.90532 27.3579C9.37383 27.4117 9.84569 27.2904 10.2299 27.0175C11.77 25.8701 13.6841 25.3378 15.5971 25.525C19.1352 25.856 22.3456 29.1667 22.5682 32.698C22.6331 33.7291 22.4898 34.7628 22.1467 35.7376C21.8037 36.7124 21.268 37.6086 20.5713 38.373C19.8746 39.1374 19.0312 39.7544 18.091 40.1874C17.1509 40.6205 16.1331 40.8608 15.0981 40.894C14.0631 40.9273 13.032 40.7529 12.0658 40.3811C11.0997 40.0093 10.2182 39.4477 9.47363 38.7296C8.7291 38.0115 8.13667 37.1516 7.73149 36.2008C7.32631 35.25 7.11662 34.2278 7.11487 33.1946V33.0732C7.11224 32.758 6.9879 32.4559 6.76773 32.2298C6.54755 32.0037 6.24848 31.871 5.93274 31.8593L1.37708 31.7338C1.19773 31.7283 1.01909 31.7587 0.851747 31.8233C0.6844 31.8879 0.531745 31.9853 0.402822 32.1098C0.273899 32.2343 0.17133 32.3834 0.101188 32.5481C0.0310467 32.7129 -0.00523956 32.8901 -0.00552368 33.0691V33.1946C-0.000756734 37.1249 1.56871 40.8923 4.35761 43.6681C5.73853 45.0425 7.37727 46.1321 9.18025 46.8747C10.9832 47.6173 12.9152 47.9982 14.8657 47.9959C16.8163 47.9935 18.7473 47.6079 20.5485 46.861C22.3496 46.1141 23.9857 45.0205 25.3633 43.6428C26.7409 42.265 27.833 40.63 28.5773 38.8312C29.3215 37.0323 29.7034 35.1048 29.701 33.1587C29.6761 25.3429 23.4268 18.7947 15.5902 18.4154Z" fill="#302C98"/>
<path d="M29.7992 25.8477V5.68048C29.7997 5.39457 29.7438 5.11136 29.6345 4.84705C29.5253 4.58273 29.3649 4.3425 29.1625 4.14008C28.9601 3.93766 28.7198 3.77702 28.4551 3.66736C28.1905 3.5577 27.9068 3.50116 27.6202 3.50098H25.6666C25.3813 3.50076 25.0995 3.56387 24.8417 3.68573C24.5839 3.80759 24.3565 3.98515 24.176 4.20554C23.9954 4.42593 23.8663 4.68363 23.7979 4.95997C23.7296 5.23631 23.7237 5.52436 23.7807 5.80324L26.9607 21.5812L29.7992 25.8477Z" fill="url(#paint0_linear_1_33)"/>
<path d="M25.9431 20.8418L20.6367 3.03472C20.4714 2.47702 20.1298 1.98762 19.6628 1.63956C19.1959 1.2915 18.6286 1.10346 18.0457 1.10352H15.81C15.4784 1.10332 15.1523 1.18812 14.863 1.34979C14.5737 1.51146 14.3309 1.74457 14.1578 2.02678C13.9847 2.30898 13.8872 2.63081 13.8747 2.96142C13.8621 3.29202 13.9348 3.6203 14.0859 3.91479L20.9906 17.4525C20.9906 17.4525 24.0849 18.683 25.9431 20.8418Z" fill="url(#paint1_linear_1_33)"/>
<path d="M19.7532 17.1642L10.1414 1.56974C9.78508 0.991893 9.25819 0.538302 8.63308 0.271294C8.00797 0.00428627 7.31532 -0.063036 6.65031 0.078577L4.99948 0.430332C4.62904 0.50889 4.2833 0.676159 3.99208 0.917721C3.70087 1.15928 3.4729 1.46789 3.32785 1.81692C3.1828 2.16596 3.12501 2.54496 3.15947 2.92125C3.19392 3.29753 3.31959 3.65981 3.52563 3.97684L11.7092 16.5545C11.7092 16.5545 16.0409 16.2386 19.7532 17.1642Z" fill="url(#paint2_linear_1_33)"/>
<path d="M72.735 35.475C72.1617 37.195 71.3017 38.657 70.155 39.861C69.0083 41.0363 67.661 41.925 66.113 42.527C64.565 43.129 62.8593 43.43 60.996 43.43C58.2727 43.43 55.9077 42.8423 53.901 41.667C51.8943 40.4917 50.3463 38.8147 49.257 36.636C48.1677 34.4573 47.623 31.8487 47.623 28.81C47.623 25.7713 48.1677 23.1627 49.257 20.984C50.3463 18.8053 51.8943 17.1283 53.901 15.953C55.9077 14.7777 58.2583 14.19 60.953 14.19C62.8163 14.19 64.4933 14.448 65.984 14.964C67.5033 15.48 68.7933 16.254 69.854 17.286C70.9147 18.318 71.7317 19.608 72.305 21.156L67.962 23.091C67.3887 21.3997 66.5573 20.167 65.468 19.393C64.3787 18.5903 62.9597 18.189 61.211 18.189C59.4623 18.189 57.9287 18.6047 56.61 19.436C55.2913 20.2673 54.2593 21.4713 53.514 23.048C52.7973 24.6247 52.439 26.5453 52.439 28.81C52.439 31.046 52.783 32.9667 53.471 34.572C54.159 36.1487 55.148 37.3527 56.438 38.184C57.728 39.0153 59.276 39.431 61.082 39.431C62.8307 39.431 64.3357 38.9867 65.597 38.098C66.887 37.1807 67.8043 35.819 68.349 34.013L72.735 35.475ZM102.173 43H97.3135L94.6045 35.561H82.6935L79.9845 43H75.2545L85.9615 14.62H91.4655L102.173 43ZM83.9835 31.82H93.3145L88.6705 18.576L83.9835 31.82ZM127.716 18.576H111.806V26.832H124.276V30.788H111.806V43H107.205V14.62H127.716V18.576Z" fill="#09081E"/>
</g>
<defs>
<linearGradient id="paint0_linear_1_33" x1="34.1613" y1="23.3289" x2="23.3438" y2="4.5499" gradientUnits="userSpaceOnUse">
<stop stop-color="#8E2DFE"/>
<stop offset="0.67" stop-color="#0FB4FF"/>
<stop offset="1" stop-color="#5FEDFD"/>
</linearGradient>
<linearGradient id="paint1_linear_1_33" x1="26.7284" y1="20.3879" x2="15.5376" y2="0.962631" gradientUnits="userSpaceOnUse">
<stop stop-color="#8E2DFE"/>
<stop offset="0.67" stop-color="#0FB4FF"/>
<stop offset="1" stop-color="#5FEDFD"/>
</linearGradient>
<linearGradient id="paint2_linear_1_33" x1="16.5304" y1="19.0209" x2="5.55584" y2="-0.0301509" gradientUnits="userSpaceOnUse">
<stop stop-color="#8E2DFE"/>
<stop offset="0.67" stop-color="#0FB4FF"/>
<stop offset="1" stop-color="#5FEDFD"/>
</linearGradient>
<clipPath id="clip0_1_33">
<rect width="120" height="48" fill="white"/>
</clipPath>
</defs>
</svg>
